<?xml version="1.0" encoding="UTF-8"?>
<!DOCTYPE svg PUBLIC "-//W3C//DTD SVG 1.1//EN" "http://www.w3.org/Graphics/SVG/1.1/DTD/svg11.dtd">
<svg xmlns="http://www.w3.org/2000/svg" version="1.1" width="300px" height="205px" style="shape-rendering:geometricPrecision; text-rendering:geometricPrecision; image-rendering:optimizeQuality; fill-rule:evenodd; clip-rule:evenodd" xmlns:xlink="http://www.w3.org/1999/xlink">
<g><path style="opacity:0.564" fill="#ff6d11" d="M 244.5,-0.5 C 245.833,-0.5 247.167,-0.5 248.5,-0.5C 249.341,6.87052 250.508,14.2038 252,21.5C 253.892,20.3826 254.725,18.7159 254.5,16.5C 256.635,16.147 257.968,16.9803 258.5,19C 257.277,22.5035 257.277,26.0035 258.5,29.5C 259.85,28.0499 261.516,27.3832 263.5,27.5C 263.335,30.5184 263.502,33.5184 264,36.5C 265.011,35.6634 266.178,35.33 267.5,35.5C 266.178,45.9949 262.512,55.4949 256.5,64C 258.664,64.9143 260.664,66.081 262.5,67.5C 264.902,73.873 267.402,80.2063 270,86.5C 269.845,84.1893 269.845,81.856 270,79.5C 272.09,78.2092 273.424,78.8758 274,81.5C 274.5,73.1733 274.666,64.84 274.5,56.5C 275.833,56.5 277.167,56.5 278.5,56.5C 278.002,60.2194 278.836,63.5527 281,66.5C 282.701,64.1 283.534,61.4334 283.5,58.5C 282.577,53.5174 282.41,48.5174 283,43.5C 284,42.1667 285,42.1667 286,43.5C 286.094,51.2089 287.761,58.5423 291,65.5C 291.046,71.4147 292.046,77.0814 294,82.5C 294.738,86.2613 294.405,89.9279 293,93.5C 289.333,97.1887 285.667,100.855 282,104.5C 279.005,103.724 276.172,102.557 273.5,101C 270,96.8333 266.5,92.6667 263,88.5C 265.332,101.171 266.832,114.004 267.5,127C 267.167,130.74 265.167,132.073 261.5,131C 256.525,125.494 251.692,119.994 247,114.5C 244.121,115.376 241.787,117.042 240,119.5C 237.217,123.951 234.05,128.117 230.5,132C 228.105,134.145 225.938,133.978 224,131.5C 223.333,128.167 223.333,124.833 224,121.5C 227.072,112.284 229.739,102.95 232,93.5C 232.667,89.8333 232.667,86.1667 232,82.5C 231.692,81.6919 231.192,81.0253 230.5,80.5C 224.011,87.1569 217.678,93.9902 211.5,101C 210.234,101.309 209.067,101.809 208,102.5C 204.951,101.39 201.784,100.723 198.5,100.5C 198.325,97.6711 199.658,96.0045 202.5,95.5C 200.369,92.8371 197.869,90.5038 195,88.5C 193.443,81.2473 193.11,73.914 194,66.5C 195.183,65.269 196.349,65.269 197.5,66.5C 198.214,68.8111 199.214,70.9777 200.5,73C 201.996,73.5074 203.163,73.0074 204,71.5C 204.564,68.8453 205.064,66.1786 205.5,63.5C 203.965,57.0536 204.299,50.7203 206.5,44.5C 207.651,43.269 208.817,43.269 210,44.5C 211.036,47.7527 211.703,51.086 212,54.5C 213.787,50.3631 215.121,46.0298 216,41.5C 217,40.1667 218,40.1667 219,41.5C 221.565,53.2315 221.898,64.8982 220,76.5C 222.583,73.0026 224.916,69.3359 227,65.5C 228.067,64.8095 229.234,64.3095 230.5,64C 222.937,54.3981 219.27,43.5648 219.5,31.5C 222.329,31.3249 223.996,32.6582 224.5,35.5C 225.759,26.6496 229.426,18.9829 235.5,12.5C 236.689,11.5713 238.022,11.238 239.5,11.5C 238.655,14.8264 238.155,18.1597 238,21.5C 241.71,14.6675 243.877,7.3342 244.5,-0.5 Z"/></g>
<g><path style="opacity:1" fill="#fffbf9" d="M 267.5,88.5 C 267.167,88.5 266.833,88.5 266.5,88.5C 264.217,85.0437 261.717,81.7104 259,78.5C 258.107,77.2888 257.274,77.2888 256.5,78.5C 260.626,89.464 262.959,100.797 263.5,112.5C 263.821,117.695 263.487,122.695 262.5,127.5C 258.631,124.116 255.464,120.116 253,115.5C 249.693,110.838 245.86,110.338 241.5,114C 236.616,119.378 231.95,124.878 227.5,130.5C 226.345,127.554 226.179,124.554 227,121.5C 230.621,110.016 233.454,98.349 235.5,86.5C 235.657,82.1485 234.157,78.4818 231,75.5C 224.667,82.5 218.333,89.5 212,96.5C 211.833,96.1667 211.667,95.8333 211.5,95.5C 217.584,86.3348 223.417,77.0015 229,67.5C 231.737,66.4396 234.57,65.6063 237.5,65C 235.413,64.2078 233.579,63.0412 232,61.5C 229.588,56.3413 226.921,51.3413 224,46.5C 223.503,44.1902 223.337,41.8568 223.5,39.5C 224.675,39.719 225.675,39.3857 226.5,38.5C 227.222,31.1494 229.722,24.4827 234,18.5C 234.936,23.8279 237.603,24.8279 242,21.5C 243.488,17.2131 244.822,12.8797 246,8.5C 247.838,13.3224 249.172,18.3224 250,23.5C 251.458,24.7468 252.958,24.7468 254.5,23.5C 255.318,26.1071 255.818,28.7737 256,31.5C 257.356,32.3802 258.856,32.7135 260.5,32.5C 260.5,35.5 260.5,38.5 260.5,41.5C 261.675,41.281 262.675,41.6143 263.5,42.5C 262.019,48.4467 259.852,54.1134 257,59.5C 255.316,61.3513 253.483,63.018 251.5,64.5C 254.348,66.4243 257.348,68.091 260.5,69.5C 263.037,75.78 265.37,82.1133 267.5,88.5 Z"/></g>
<g><path style="opacity:0.58" fill="#ff6e15" d="M 178.5,204.5 C 172.167,204.5 165.833,204.5 159.5,204.5C 159.5,201.5 159.5,198.5 159.5,195.5C 153.824,195.334 148.157,195.501 142.5,196C 140.28,198.713 138.28,201.546 136.5,204.5C 120.833,204.5 105.167,204.5 89.5,204.5C 89.6666,187.497 89.4999,170.497 89,153.5C 68.3333,194.833 47.6667,194.833 27,153.5C 26.5001,170.497 26.3334,187.497 26.5,204.5C 17.5,204.5 8.5,204.5 -0.5,204.5C -0.5,175.833 -0.5,147.167 -0.5,118.5C 2.57199,112.77 7.23866,108.77 13.5,106.5C 14.4996,86.5111 14.833,66.5111 14.5,46.5C 27.5043,46.3334 40.5043,46.5001 53.5,47C 57,51.8333 60.5,56.6667 64,61.5C 64.4993,56.5111 64.6659,51.5111 64.5,46.5C 70.5,46.5 76.5,46.5 82.5,46.5C 82.5,66.8333 82.5,87.1667 82.5,107.5C 76.5,107.5 70.5,107.5 64.5,107.5C 64.5,93.1667 64.5,78.8333 64.5,64.5C 53.8333,64.5 43.1667,64.5 32.5,64.5C 32.5,65.8333 32.5,67.1667 32.5,68.5C 40.5069,68.3336 48.5069,68.5003 56.5,69C 52.8888,74.944 48.8888,80.6107 44.5,86C 40.5138,86.4988 36.5138,86.6655 32.5,86.5C 32.5,93.5 32.5,100.5 32.5,107.5C 26.3241,107.333 26.3241,108.5 32.5,111C 42.855,122.201 51.355,134.701 58,148.5C 63.2045,137.976 69.2045,127.976 76,118.5C 79.5813,114.248 83.748,110.748 88.5,108C 86.5186,87.7329 85.8519,67.2329 86.5,46.5C 100.837,46.3334 115.171,46.5001 129.5,47C 131.624,48.1217 133.457,49.6217 135,51.5C 136.592,61.7595 136.926,72.0928 136,82.5C 135.496,86.0202 133.663,88.5202 130.5,90C 133.208,94.5843 136.042,99.0843 139,103.5C 139.5,84.5029 139.667,65.5029 139.5,46.5C 152.85,46.1675 166.183,46.5008 179.5,47.5C 183.631,52.7722 186.965,58.4388 189.5,64.5C 178.833,64.5 168.167,64.5 157.5,64.5C 157.5,65.8333 157.5,67.1667 157.5,68.5C 165.528,68.169 173.528,68.5023 181.5,69.5C 177.709,74.914 174.043,80.414 170.5,86C 166.179,86.499 161.846,86.6657 157.5,86.5C 157.5,87.5 157.5,88.5 157.5,89.5C 168.167,89.5 178.833,89.5 189.5,89.5C 186.866,95.6579 183.533,101.491 179.5,107C 159.5,107.667 139.5,107.667 119.5,107C 116.364,101.699 113.03,96.5322 109.5,91.5C 107.955,90.5481 106.288,90.2148 104.5,90.5C 104.334,96.1764 104.501,101.843 105,107.5C 111.908,110.649 115.908,115.983 117,123.5C 117.333,147.833 117.667,172.167 118,196.5C 129.966,176.73 142.799,157.564 156.5,139C 165.508,135.003 172.675,137.17 178,145.5C 178.5,165.164 178.667,184.831 178.5,204.5 Z M 104.5,64.5 C 109.167,64.5 113.833,64.5 118.5,64.5C 118.5,67.1667 118.5,69.8333 118.5,72.5C 113.833,72.5 109.167,72.5 104.5,72.5C 104.5,69.8333 104.5,67.1667 104.5,64.5 Z M 158.5,169.5 C 159.461,171.265 159.795,173.265 159.5,175.5C 158.127,175.657 156.793,175.49 155.5,175C 156.758,173.259 157.758,171.426 158.5,169.5 Z"/></g>
<g><path style="opacity:1" fill="#ffa86e" d="M 127.5,49.5 C 114.833,49.5 102.167,49.5 89.5,49.5C 89.5,53.5 89.5,57.5 89.5,61.5C 88.5151,57.3656 88.1818,53.0323 88.5,48.5C 101.677,48.1712 114.677,48.5045 127.5,49.5 Z"/></g>
<g><path style="opacity:1" fill="#ffbe93" d="M 52.5,49.5 C 40.8333,49.5 29.1667,49.5 17.5,49.5C 17.5,67.8333 17.5,86.1667 17.5,104.5C 21.5,104.5 25.5,104.5 29.5,104.5C 29.5,104.833 29.5,105.167 29.5,105.5C 25.1667,105.5 20.8333,105.5 16.5,105.5C 16.5,86.5 16.5,67.5 16.5,48.5C 28.6783,48.1716 40.6783,48.5049 52.5,49.5 Z"/></g>
<g><path style="opacity:1" fill="#fffdfc" d="M 52.5,49.5 C 54.5836,53.3359 56.917,57.0026 59.5,60.5C 49.6806,61.494 39.6806,61.8274 29.5,61.5C 29.5,75.8333 29.5,90.1667 29.5,104.5C 25.5,104.5 21.5,104.5 17.5,104.5C 17.5,86.1667 17.5,67.8333 17.5,49.5C 29.1667,49.5 40.8333,49.5 52.5,49.5 Z"/></g>
<g><path style="opacity:1" fill="#fffdfc" d="M 67.5,49.5 C 71.5,49.5 75.5,49.5 79.5,49.5C 79.5,68.1667 79.5,86.8333 79.5,105.5C 75.5,105.5 71.5,105.5 67.5,105.5C 67.5,86.8333 67.5,68.1667 67.5,49.5 Z"/></g>
<g><path style="opacity:1" fill="#fffcfb" d="M 127.5,49.5 C 129.716,50.2026 131.549,51.5359 133,53.5C 133.667,63.5 133.667,73.5 133,83.5C 131.533,85.9935 129.367,87.6601 126.5,88.5C 129.26,93.6935 132.26,98.6935 135.5,103.5C 131.03,104.486 126.363,104.819 121.5,104.5C 117.72,99.1146 114.053,93.6146 110.5,88C 107.518,87.502 104.518,87.3354 101.5,87.5C 101.5,93.1667 101.5,98.8333 101.5,104.5C 97.5,104.5 93.5,104.5 89.5,104.5C 89.5,91.8333 89.5,79.1667 89.5,66.5C 93.5,66.5 97.5,66.5 101.5,66.5C 101.5,69.5 101.5,72.5 101.5,75.5C 107.833,75.5 114.167,75.5 120.5,75.5C 120.5,70.8333 120.5,66.1667 120.5,61.5C 110.167,61.5 99.8333,61.5 89.5,61.5C 89.5,57.5 89.5,53.5 89.5,49.5C 102.167,49.5 114.833,49.5 127.5,49.5 Z"/></g>
<g><path style="opacity:1" fill="#fffcfa" d="M 142.5,49.5 C 154.171,49.3335 165.838,49.5001 177.5,50C 180.167,53.6667 182.833,57.3333 185.5,61C 175.172,61.4998 164.839,61.6665 154.5,61.5C 154.5,71.8333 154.5,82.1667 154.5,92.5C 164.839,92.3335 175.172,92.5002 185.5,93C 183,96.8333 180.5,100.667 178,104.5C 166.247,105.488 154.414,105.821 142.5,105.5C 142.5,86.8333 142.5,68.1667 142.5,49.5 Z"/></g>
<g><path style="opacity:1" fill="#fff6f0" d="M 207.5,49.5 C 209.076,54.2916 210.41,59.2916 211.5,64.5C 212.086,64.2907 212.586,63.9574 213,63.5C 214.081,58.7637 215.414,54.0971 217,49.5C 219.053,55.7018 219.72,62.0351 219,68.5C 216.812,75.6951 213.979,82.5284 210.5,89C 197.895,91.384 193.395,86.2173 197,73.5C 201.118,76.5921 204.451,75.9255 207,71.5C 207.5,64.1742 207.666,56.8409 207.5,49.5 Z"/></g>
<g><path style="opacity:1" fill="#ff7d28" d="M 59.5,60.5 C 60.0431,60.56 60.3764,60.8933 60.5,61.5C 50.5222,62.4985 40.5222,62.8319 30.5,62.5C 30.8293,77.0097 30.4959,91.3431 29.5,105.5C 29.5,105.167 29.5,104.833 29.5,104.5C 29.5,90.1667 29.5,75.8333 29.5,61.5C 39.6806,61.8274 49.6806,61.494 59.5,60.5 Z"/></g>
<g><path style="opacity:1" fill="#fff7f2" d="M 285.5,61.5 C 287.117,63.1209 288.284,65.1209 289,67.5C 289.65,72.3014 289.15,76.9681 287.5,81.5C 287.833,82.8333 288.167,84.1667 288.5,85.5C 289.243,84.0921 290.077,82.7588 291,81.5C 292.892,94.2606 287.892,97.9272 276,92.5C 273.968,89.5774 274.302,86.9108 277,84.5C 277.333,78.8333 277.667,73.1667 278,67.5C 278.424,69.6145 279.591,70.4479 281.5,70C 283.782,67.6026 285.116,64.7693 285.5,61.5 Z"/></g>
<g><path style="opacity:1" fill="#ffbf94" d="M 89.5,66.5 C 89.5,79.1667 89.5,91.8333 89.5,104.5C 93.5,104.5 97.5,104.5 101.5,104.5C 97.3656,105.485 93.0323,105.818 88.5,105.5C 88.1712,92.3226 88.5045,79.3226 89.5,66.5 Z"/></g>
<g><path style="opacity:1" fill="#ffbd91" d="M 50.5,72.5 C 45.3595,71.5119 40.0262,71.1786 34.5,71.5C 34.5,75.5 34.5,79.5 34.5,83.5C 33.5151,79.3656 33.1818,75.0323 33.5,70.5C 39.5368,70.1707 45.5368,70.5041 51.5,71.5C 51.3764,72.1067 51.0431,72.44 50.5,72.5 Z"/></g>
<g><path style="opacity:1" fill="#ffcca9" d="M 159.5,71.5 C 165.013,70.1843 170.68,70.1843 176.5,71.5C 176.376,72.1067 176.043,72.44 175.5,72.5C 170.36,71.5119 165.026,71.1786 159.5,71.5 Z"/></g>
<g><path style="opacity:1" fill="#fffbf9" d="M 50.5,72.5 C 48.0528,75.8854 45.7195,79.3854 43.5,83C 40.5184,83.498 37.5184,83.6646 34.5,83.5C 34.5,79.5 34.5,75.5 34.5,71.5C 40.0262,71.1786 45.3595,71.5119 50.5,72.5 Z"/></g>
<g><path style="opacity:1" fill="#fff9f5" d="M 159.5,71.5 C 165.026,71.1786 170.36,71.5119 175.5,72.5C 173.952,76.0607 171.952,79.394 169.5,82.5C 166.232,83.487 162.898,83.8204 159.5,83.5C 159.5,79.5 159.5,75.5 159.5,71.5 Z"/></g>
<g><path style="opacity:1" fill="#ffc7a1" d="M 266.5,88.5 C 266.833,88.5 267.167,88.5 267.5,88.5C 270.615,90.4278 272.448,93.0944 273,96.5C 270.999,93.6693 268.833,91.0026 266.5,88.5 Z"/></g>
<g><path style="opacity:1" fill="#ffc198" d="M 277.5,100.5 C 279.035,99.2121 280.701,99.2121 282.5,100.5C 280.833,101.666 279.166,101.666 277.5,100.5 Z"/></g>
<g><path style="opacity:1" fill="#ffb787" d="M 135.5,103.5 C 136.043,103.56 136.376,103.893 136.5,104.5C 131.348,105.814 126.348,105.814 121.5,104.5C 126.363,104.819 131.03,104.486 135.5,103.5 Z"/></g>
<g><path style="opacity:1" fill="#fffdfb" d="M 14.5,108.5 C 24.2699,108.635 32.1032,112.635 38,120.5C 45.0639,131.237 51.7306,142.237 58,153.5C 63.4144,143.669 69.0811,134.002 75,124.5C 78.1311,120.367 81.6311,116.534 85.5,113C 93.1667,107 100.833,107 108.5,113C 110.969,115.441 112.802,118.274 114,121.5C 114.5,148.498 114.667,175.498 114.5,202.5C 107.167,202.5 99.8333,202.5 92.5,202.5C 92.8329,183.155 92.4996,163.822 91.5,144.5C 85.2625,154.634 78.7625,164.634 72,174.5C 61.9599,184.128 52.2932,183.795 43,173.5C 36.602,163.945 30.4353,154.278 24.5,144.5C 23.5004,163.822 23.1671,183.155 23.5,202.5C 16.1667,202.5 8.83333,202.5 1.5,202.5C 1.33336,175.165 1.50002,147.831 2,120.5C 4.74411,114.921 8.91078,110.921 14.5,108.5 Z"/></g>
<g><path style="opacity:0.61" fill="#ff6d12" d="M 130.5,109.5 C 142.03,109.98 153.697,110.146 165.5,110C 166.5,112 167.5,112 168.5,110C 173.833,109.333 179.167,109.333 184.5,110C 185,110.5 185.5,111 186,111.5C 188.153,109.556 190.653,109.056 193.5,110C 195.709,111.873 197.542,114.04 199,116.5C 201.538,109.72 205.871,108.053 212,111.5C 212.5,118.826 212.666,126.159 212.5,133.5C 209.833,133.5 207.167,133.5 204.5,133.5C 204.664,130.813 204.497,128.146 204,125.5C 200.952,129.01 197.619,129.343 194,126.5C 193.503,128.81 193.337,131.143 193.5,133.5C 182.295,133.54 170.962,133.207 159.5,132.5C 157.101,127.025 156.101,127.359 156.5,133.5C 153.5,133.5 150.5,133.5 147.5,133.5C 147.666,128.821 147.499,124.155 147,119.5C 145.833,121.333 144.667,123.167 143.5,125C 141.866,125.494 140.199,125.66 138.5,125.5C 138.5,128.167 138.5,130.833 138.5,133.5C 135.833,133.5 133.167,133.5 130.5,133.5C 130.5,125.5 130.5,117.5 130.5,109.5 Z M 175.5,117.5 C 176.725,118.152 177.392,119.319 177.5,121C 177.167,122.167 176.833,123.333 176.5,124.5C 175.526,122.257 175.192,119.924 175.5,117.5 Z"/></g>
<g><path style="opacity:1" fill="#ffbe92" d="M 144.5,112.5 C 140.833,112.5 137.167,112.5 133.5,112.5C 133.5,118.5 133.5,124.5 133.5,130.5C 132.51,124.355 132.177,118.022 132.5,111.5C 136.702,111.183 140.702,111.517 144.5,112.5 Z"/></g>
<g><path style="opacity:1" fill="#fff0e7" d="M 144.5,112.5 C 145.478,112.811 146.145,113.478 146.5,114.5C 143.232,115.487 139.898,115.82 136.5,115.5C 136.5,120.5 136.5,125.5 136.5,130.5C 135.5,130.5 134.5,130.5 133.5,130.5C 133.5,124.5 133.5,118.5 133.5,112.5C 137.167,112.5 140.833,112.5 144.5,112.5 Z"/></g>
<g><path style="opacity:1" fill="#fff0e7" d="M 150.5,111.5 C 155.099,111.2 159.599,111.533 164,112.5C 165.012,117.075 164.512,121.408 162.5,125.5C 163.167,126.833 163.833,128.167 164.5,129.5C 163.635,130.583 162.635,130.749 161.5,130C 160.015,126.335 157.349,124.502 153.5,124.5C 153.5,126.5 153.5,128.5 153.5,130.5C 152.5,130.5 151.5,130.5 150.5,130.5C 150.5,126.5 150.5,122.5 150.5,118.5C 151.5,118.5 152.5,118.5 153.5,118.5C 153.5,119.5 153.5,120.5 153.5,121.5C 156.167,121.5 158.833,121.5 161.5,121.5C 161.5,119.5 161.5,117.5 161.5,115.5C 157.833,115.5 154.167,115.5 150.5,115.5C 150.5,114.167 150.5,112.833 150.5,111.5 Z"/></g>
<g><path style="opacity:1" fill="#ffecdf" d="M 182.5,112.5 C 178.627,114.43 174.294,115.097 169.5,114.5C 169.5,113.5 169.5,112.5 169.5,111.5C 174.032,111.182 178.366,111.515 182.5,112.5 Z"/></g>
<g><path style="opacity:1" fill="#fff0e5" d="M 188.5,112.5 C 189.873,112.343 191.207,112.51 192.5,113C 194.788,115.743 196.955,118.577 199,121.5C 200.709,118.582 202.542,115.748 204.5,113C 206.167,112.333 207.833,112.333 209.5,113C 210.475,118.741 210.808,124.575 210.5,130.5C 209.167,130.5 207.833,130.5 206.5,130.5C 206.824,126.445 206.491,122.445 205.5,118.5C 203.883,121.784 201.55,124.451 198.5,126.5C 196.167,123.833 193.833,121.167 191.5,118.5C 190.509,122.445 190.176,126.445 190.5,130.5C 189.5,130.5 188.5,130.5 187.5,130.5C 187.211,124.409 187.545,118.409 188.5,112.5 Z"/></g>
<g><path style="opacity:1" fill="#ffdbc4" d="M 182.5,112.5 C 183.404,113.209 183.737,114.209 183.5,115.5C 178.637,115.819 173.97,115.486 169.5,114.5C 174.294,115.097 178.627,114.43 182.5,112.5 Z"/></g>
<g><path style="opacity:1" fill="#fff6f0" d="M 172.5,126.5 C 174.948,127.473 177.615,127.806 180.5,127.5C 180.5,124.5 180.5,121.5 180.5,118.5C 181.5,118.5 182.5,118.5 183.5,118.5C 183.5,122.5 183.5,126.5 183.5,130.5C 178.833,130.5 174.167,130.5 169.5,130.5C 169.5,126.5 169.5,122.5 169.5,118.5C 170.5,118.5 171.5,118.5 172.5,118.5C 172.5,121.167 172.5,123.833 172.5,126.5 Z"/></g>
<g><path style="opacity:1" fill="#ffefe5" d="M 139.5,119.5 C 144.421,119.135 144.755,120.135 140.5,122.5C 139.614,121.675 139.281,120.675 139.5,119.5 Z"/></g>
<g><path style="opacity:1" fill="#ffceae" d="M 263.5,112.5 C 264.815,117.68 264.815,123.014 263.5,128.5C 262.893,128.376 262.56,128.043 262.5,127.5C 263.487,122.695 263.821,117.695 263.5,112.5 Z"/></g>
<g><path style="opacity:1" fill="#ff8d41" d="M 180.5,118.5 C 180.5,121.5 180.5,124.5 180.5,127.5C 177.615,127.806 174.948,127.473 172.5,126.5C 174.833,126.5 177.167,126.5 179.5,126.5C 179.194,123.615 179.527,120.948 180.5,118.5 Z"/></g>
<g><path style="opacity:0.535" fill="#ff6b0d" d="M 242.5,204.5 C 234.5,204.5 226.5,204.5 218.5,204.5C 215.358,198.222 211.691,192.222 207.5,186.5C 205.604,185.534 203.604,185.201 201.5,185.5C 201.5,191.833 201.5,198.167 201.5,204.5C 194.833,204.5 188.167,204.5 181.5,204.5C 181.333,182.164 181.5,159.831 182,137.5C 197.426,136.343 212.926,136.176 228.5,137C 232.186,138.089 235.019,140.255 237,143.5C 237.667,155.5 237.667,167.5 237,179.5C 235.518,181.98 233.685,184.147 231.5,186C 235.057,192.288 238.724,198.455 242.5,204.5 Z M 201.5,156.5 C 206.833,156.5 212.167,156.5 217.5,156.5C 217.5,159.833 217.5,163.167 217.5,166.5C 212.167,166.5 206.833,166.5 201.5,166.5C 201.5,163.167 201.5,159.833 201.5,156.5 Z"/></g>
<g><path style="opacity:0.562" fill="#ff6f16" d="M 299.5,153.5 C 299.5,154.5 299.5,155.5 299.5,156.5C 290.494,156.334 281.494,156.5 272.5,157C 282.109,166.766 291.109,176.933 299.5,187.5C 299.5,191.5 299.5,195.5 299.5,199.5C 298.167,201.5 296.5,203.167 294.5,204.5C 280.167,204.5 265.833,204.5 251.5,204.5C 248.591,199.689 245.424,195.022 242,190.5C 240.991,188.975 240.491,187.308 240.5,185.5C 250.839,185.666 261.172,185.5 271.5,185C 262.636,176.47 254.136,167.637 246,158.5C 244.437,153.282 244.104,147.949 245,142.5C 246.48,139.337 248.98,137.504 252.5,137C 264.167,136.333 275.833,136.333 287.5,137C 291.75,142.402 295.75,147.902 299.5,153.5 Z"/></g>
<g><path style="opacity:1" fill="#ffd7bb" d="M 229.5,140.5 C 214.833,140.5 200.167,140.5 185.5,140.5C 185.5,144.833 185.5,149.167 185.5,153.5C 197.345,153.172 209.012,153.505 220.5,154.5C 208.5,154.5 196.5,154.5 184.5,154.5C 184.5,149.5 184.5,144.5 184.5,139.5C 199.676,139.171 214.676,139.504 229.5,140.5 Z"/></g>
<g><path style="opacity:1" fill="#fffcfa" d="M 175.5,147.5 C 175.5,155.833 175.5,164.167 175.5,172.5C 171.167,172.5 166.833,172.5 162.5,172.5C 162.824,168.445 162.491,164.445 161.5,160.5C 160.893,160.624 160.56,160.957 160.5,161.5C 157.616,167.064 154.282,172.398 150.5,177.5C 159.141,178.498 167.808,178.831 176.5,178.5C 176.5,186.5 176.5,194.5 176.5,202.5C 171.5,202.5 166.5,202.5 161.5,202.5C 161.5,199.167 161.5,195.833 161.5,192.5C 154.492,192.334 147.492,192.5 140.5,193C 138.892,196.272 136.892,199.272 134.5,202C 128.833,202.667 123.167,202.667 117.5,202C 130.383,181.121 144.05,160.788 158.5,141C 166.103,138.136 171.77,140.303 175.5,147.5 Z"/></g>
<g><path style="opacity:1" fill="#fffcfa" d="M 229.5,140.5 C 231.291,141.483 232.791,142.816 234,144.5C 234.667,155.833 234.667,167.167 234,178.5C 232.52,181.663 230.02,183.496 226.5,184C 230.723,190.05 234.723,196.216 238.5,202.5C 232.409,202.789 226.409,202.455 220.5,201.5C 216.969,195.611 213.303,189.777 209.5,184C 206.183,183.502 202.85,183.335 199.5,183.5C 199.5,189.833 199.5,196.167 199.5,202.5C 194.833,202.5 190.167,202.5 185.5,202.5C 185.5,188.167 185.5,173.833 185.5,159.5C 189.833,159.5 194.167,159.5 198.5,159.5C 199.477,162.287 199.81,165.287 199.5,168.5C 206.5,168.5 213.5,168.5 220.5,168.5C 220.5,163.833 220.5,159.167 220.5,154.5C 209.012,153.505 197.345,153.172 185.5,153.5C 185.5,149.167 185.5,144.833 185.5,140.5C 200.167,140.5 214.833,140.5 229.5,140.5 Z"/></g>
<g><path style="opacity:1" fill="#fffcfa" d="M 295.5,153.5 C 279.5,153.5 263.5,153.5 247.5,153.5C 247.5,150.5 247.5,147.5 247.5,144.5C 247.916,142.248 249.249,140.748 251.5,140C 263.167,139.333 274.833,139.333 286.5,140C 289.722,144.382 292.722,148.882 295.5,153.5 Z"/></g>
<g><path style="opacity:1" fill="#ffbf94" d="M 247.5,144.5 C 247.5,147.5 247.5,150.5 247.5,153.5C 263.5,153.5 279.5,153.5 295.5,153.5C 279.342,154.496 263.009,154.83 246.5,154.5C 246.187,150.958 246.521,147.625 247.5,144.5 Z"/></g>
<g><path style="opacity:1" fill="#ffd9c0" d="M 198.5,159.5 C 194.167,159.5 189.833,159.5 185.5,159.5C 185.5,173.833 185.5,188.167 185.5,202.5C 184.504,188.01 184.171,173.343 184.5,158.5C 189.363,158.181 194.03,158.514 198.5,159.5 Z"/></g>
<g><path style="opacity:1" fill="#fffcfb" d="M 251.5,160.5 C 257.987,159.346 264.654,159.179 271.5,160C 280.038,168.869 288.204,178.036 296,187.5C 296.867,191.956 296.534,196.289 295,200.5C 294.25,201.126 293.416,201.626 292.5,202C 279.5,202.667 266.5,202.667 253.5,202C 250.5,197.667 247.5,193.333 244.5,189C 255.5,188.667 266.5,188.333 277.5,188C 268.967,178.635 260.3,169.469 251.5,160.5 Z"/></g>
<g><path style="opacity:1" fill="#ffe1cc" d="M 175.5,147.5 C 176.493,155.984 176.826,164.651 176.5,173.5C 171.5,173.5 166.5,173.5 161.5,173.5C 161.817,169.298 161.483,165.298 160.5,161.5C 160.56,160.957 160.893,160.624 161.5,160.5C 162.491,164.445 162.824,168.445 162.5,172.5C 166.833,172.5 171.167,172.5 175.5,172.5C 175.5,164.167 175.5,155.833 175.5,147.5 Z"/></g>
<g><path style="opacity:1" fill="#ff893b" d="M 220.5,201.5 C 226.409,202.455 232.409,202.789 238.5,202.5C 235.686,203.165 232.686,203.498 229.5,203.5C 226.087,203.483 223.087,202.816 220.5,201.5 Z"/></g>
</svg>
