<?xml version="1.0" encoding="UTF-8"?>
<!DOCTYPE svg PUBLIC "-//W3C//DTD SVG 1.1//EN" "http://www.w3.org/Graphics/SVG/1.1/DTD/svg11.dtd">
<svg xmlns="http://www.w3.org/2000/svg" version="1.1" width="223px" height="300px" style="shape-rendering:geometricPrecision; text-rendering:geometricPrecision; image-rendering:optimizeQuality; fill-rule:evenodd; clip-rule:evenodd" xmlns:xlink="http://www.w3.org/1999/xlink">
<g><path style="opacity:0.783" fill="#ff6909" d="M 113.5,-0.5 C 115.5,-0.5 117.5,-0.5 119.5,-0.5C 122.48,15.7667 125.314,32.1001 128,48.5C 129.229,50.9468 130.729,51.1135 132.5,49C 135.5,46.3203 137.166,42.987 137.5,39C 139.367,38.2888 140.867,38.7888 142,40.5C 141.536,49.1416 141.536,57.8083 142,66.5C 142.308,67.3081 142.808,67.9747 143.5,68.5C 145.924,67.5771 147.924,66.0771 149.5,64C 153.534,63.024 155.534,64.6906 155.5,69C 154.452,75.5554 153.618,82.0554 153,88.5C 155.408,85.7516 158.074,83.4183 161,81.5C 162.947,82.0439 163.78,83.3772 163.5,85.5C 159.73,97.3867 156.23,109.387 153,121.5C 151.744,125.016 149.744,128.016 147,130.5C 145.741,136.854 142.574,142.021 137.5,146C 143.241,147.95 148.407,150.784 153,154.5C 157.333,166.167 161.667,177.833 166,189.5C 168.157,195.316 171.49,200.316 176,204.5C 175.305,200.073 173.971,195.74 172,191.5C 170.844,187.582 170.344,183.582 170.5,179.5C 172.5,179.5 174.5,179.5 176.5,179.5C 177.357,183.635 178.523,187.635 180,191.5C 180.333,190.5 180.667,189.5 181,188.5C 181.333,168.833 181.667,149.167 182,129.5C 183.667,128.167 185.333,128.167 187,129.5C 186.694,138.322 189.027,146.322 194,153.5C 199.168,147.66 201.668,140.827 201.5,133C 199.733,121.891 199.233,110.724 200,99.5C 201.667,98.1667 203.333,98.1667 205,99.5C 205.291,108.582 206.291,117.582 208,126.5C 211.304,135.046 214.304,143.712 217,152.5C 218.679,158.633 218.846,164.8 217.5,171C 219.061,173.965 220.728,176.798 222.5,179.5C 222.5,189.5 222.5,199.5 222.5,209.5C 219.268,214.717 214.601,218.05 208.5,219.5C 208.53,224.936 206.196,229.436 201.5,233C 193.402,235.144 186.068,233.478 179.5,228C 169.625,217.127 160.125,205.961 151,194.5C 154.853,211.615 157.853,228.948 160,246.5C 161.107,258.981 161.94,271.481 162.5,284C 162.593,287.95 162.093,291.784 161,295.5C 157.772,298.13 154.605,297.964 151.5,295C 140.77,284.685 131.603,273.185 124,260.5C 119.437,256.535 114.937,256.702 110.5,261C 107.333,264.167 104.167,267.333 101,270.5C 94.0494,280.614 86.5494,290.281 78.5,299.5C 75.5,299.5 72.5,299.5 69.5,299.5C 68.4955,298.317 67.6622,296.984 67,295.5C 66.3333,289.833 66.3333,284.167 67,278.5C 72.129,260.112 77.4623,241.779 83,223.5C 86.064,212.346 87.064,201.012 86,189.5C 85.4434,185.825 84.1101,182.492 82,179.5C 66.8333,196 51.6667,212.5 36.5,229C 34.444,229.311 32.444,229.811 30.5,230.5C 23.8058,227.95 16.8058,226.617 9.5,226.5C 9.5,224.5 9.5,222.5 9.5,220.5C 13.226,220.823 16.8927,220.489 20.5,219.5C 18.5565,215.947 16.8898,212.281 15.5,208.5C 7.94206,206.27 2.60873,201.603 -0.5,194.5C -0.5,179.833 -0.5,165.167 -0.5,150.5C 1.93577,148.983 4.10244,149.316 6,151.5C 7.20582,156.792 9.37249,161.625 12.5,166C 17.3252,168.012 20.8252,166.512 23,161.5C 24.8035,147.701 24.9702,133.868 23.5,120C 25.0766,113.197 26.4099,106.364 27.5,99.5C 30.0444,99.1043 32.2111,99.771 34,101.5C 36.28,111.801 38.28,122.134 40,132.5C 43.3152,119.906 46.3152,107.239 49,94.5C 50.6667,93.1667 52.3333,93.1667 54,94.5C 56.7113,111.768 58.878,129.101 60.5,146.5C 59.1451,161.234 55.1451,175.234 48.5,188.5C 48.8457,189.696 49.3457,189.696 50,188.5C 58.3333,175.167 66.6667,161.833 75,148.5C 77.6604,147.166 80.4937,146.332 83.5,146C 81.2911,144.127 79.4578,141.96 78,139.5C 73.0486,127.596 67.0486,116.263 60,105.5C 59.7246,95.083 59.0579,84.7497 58,74.5C 59.194,72.4746 60.694,72.1413 62.5,73.5C 64.0392,77.7047 65.8725,81.7047 68,85.5C 70.3906,77.338 72.0573,69.0047 73,60.5C 78.146,47.6945 85.646,36.5278 95.5,27C 98.1249,26.2765 99.7916,27.2765 100.5,30C 98.6954,35.7478 96.6954,41.4145 94.5,47C 97.0346,50.7723 99.5346,50.939 102,47.5C 108.04,32.0056 111.874,16.0056 113.5,-0.5 Z M 47.5,191.5 C 47.573,193.027 46.9063,194.027 45.5,194.5C 45.427,192.973 46.0937,191.973 47.5,191.5 Z M 34.5,206.5 C 35.8734,206.343 37.2068,206.51 38.5,207C 34.7846,214.309 33.4513,214.142 34.5,206.5 Z M 22.5,209.5 C 23.5676,208.566 24.901,208.232 26.5,208.5C 26.6602,210.199 26.4935,211.866 26,213.5C 25.0513,211.907 23.8846,210.574 22.5,209.5 Z M 184.5,216.5 C 186.225,216.843 186.725,217.843 186,219.5C 184.961,218.756 184.461,217.756 184.5,216.5 Z"/></g>
<g><path style="opacity:1" fill="#fffdfc" d="M 177.5,216.5 C 177.5,217.167 177.167,217.5 176.5,217.5C 165.144,204.141 154.144,190.475 143.5,176.5C 141.505,175.11 140.172,175.61 139.5,178C 151.828,214.804 157.828,252.638 157.5,291.5C 154.041,290.564 151.207,288.564 149,285.5C 141.288,275.243 133.454,265.076 125.5,255C 120.994,252.186 116.327,251.853 111.5,254C 108.833,256 106.167,258 103.5,260C 94.9513,270.214 86.7846,280.714 79,291.5C 73.7581,297.322 70.9248,296.155 70.5,288C 74.5165,267.769 80.0165,247.935 87,228.5C 91.0193,215.099 92.3526,201.432 91,187.5C 89.6717,181.178 87.0051,175.511 83,170.5C 69.3006,185.696 55.4673,200.696 41.5,215.5C 40.6618,215.158 40.3284,214.492 40.5,213.5C 53.276,192.884 66.276,172.384 79.5,152C 85.1481,150.671 90.8147,149.504 96.5,148.5C 97.675,148.719 98.675,148.386 99.5,147.5C 99.3764,146.893 99.0431,146.56 98.5,146.5C 93.3248,145.945 88.8248,143.945 85,140.5C 78.5876,128.007 71.9209,115.674 65,103.5C 64.5034,101.19 64.3367,98.8568 64.5,96.5C 65.1667,94.5 65.8333,92.5 66.5,90.5C 69.3245,90.9193 71.4912,89.9193 73,87.5C 75.3041,80.0089 76.6375,72.3422 77,64.5C 80.7401,56.0143 85.2401,48.0143 90.5,40.5C 90.8333,40.8333 91.1667,41.1667 91.5,41.5C 88.2912,51.7892 91.9579,55.9559 102.5,54C 104.378,52.4571 105.878,50.6238 107,48.5C 110.343,38.4425 113.676,28.4425 117,18.5C 120.361,29.3065 122.694,40.3065 124,51.5C 127.659,55.1151 131.659,55.4485 136,52.5C 136.138,58.5813 136.804,64.5813 138,70.5C 141.315,74.1053 144.982,74.4386 149,71.5C 148.386,78.8078 148.052,86.1412 148,93.5C 150.908,94.2855 153.742,94.6188 156.5,94.5C 152.486,103.532 149.319,112.865 147,122.5C 143.031,126.769 140.365,131.769 139,137.5C 135.167,140.667 131.333,143.833 127.5,147C 134.897,150.116 142.064,153.616 149,157.5C 154.021,172.898 160.021,187.898 167,202.5C 171.239,206.66 174.739,211.327 177.5,216.5 Z"/></g>
<g><path style="opacity:1" fill="#ffc9a6" d="M 66.5,90.5 C 65.8333,92.5 65.1667,94.5 64.5,96.5C 64.1924,94.076 64.5258,91.7427 65.5,89.5C 66.1067,89.6236 66.44,89.9569 66.5,90.5 Z"/></g>
<g><path style="opacity:1" fill="#fffbf8" d="M 3.5,176.5 C 4.16667,172.5 4.83333,168.5 5.5,164.5C 9.3174,171.522 14.9841,173.355 22.5,170C 26.0869,166.995 28.2536,163.162 29,158.5C 29.0297,142.408 29.6963,126.408 31,110.5C 33.2141,122.114 34.8808,133.781 36,145.5C 38.7758,147.14 40.7758,146.473 42,143.5C 45.0043,132.489 48.0043,121.489 51,110.5C 54.0894,125.027 55.4227,139.694 55,154.5C 50.3453,170.607 44.5119,186.107 37.5,201C 29.9561,203.144 22.2894,203.811 14.5,203C 9.02141,200.569 5.52141,196.403 4,190.5C 3.50085,185.845 3.33418,181.179 3.5,176.5 Z"/></g>
<g><path style="opacity:1" fill="#fffbf9" d="M 206.5,138.5 C 211.808,147.742 213.975,157.742 213,168.5C 209.829,176.224 208.829,184.224 210,192.5C 211.011,193.337 212.178,193.67 213.5,193.5C 213.19,189.46 214.524,186.127 217.5,183.5C 223.333,211.833 212.666,221 185.5,211C 182.586,207.773 180.919,203.94 180.5,199.5C 183.374,196.418 185.208,192.751 186,188.5C 186.333,176.167 186.667,163.833 187,151.5C 188.908,154.215 190.241,157.215 191,160.5C 192.049,161.517 193.216,161.684 194.5,161C 200.479,154.542 204.479,147.042 206.5,138.5 Z"/></g>
<g><path style="opacity:1" fill="#ffb98a" d="M 98.5,146.5 C 99.0431,146.56 99.3764,146.893 99.5,147.5C 98.675,148.386 97.675,148.719 96.5,148.5C 97.1667,147.833 97.8333,147.167 98.5,146.5 Z"/></g>
<g><path style="opacity:1" fill="#ff9d5c" d="M 5.5,164.5 C 4.83333,168.5 4.16667,172.5 3.5,176.5C 3.17443,172.116 3.50776,167.783 4.5,163.5C 5.10667,163.624 5.44001,163.957 5.5,164.5 Z"/></g>
<g><path style="opacity:1" fill="#ffd9c0" d="M 40.5,213.5 C 40.3284,214.492 40.6618,215.158 41.5,215.5C 39.0081,218.469 36.5081,221.469 34,224.5C 35.6122,220.625 37.7789,216.958 40.5,213.5 Z"/></g>
<g><path style="opacity:1" fill="#ffb17d" d="M 177.5,216.5 C 179.07,217.875 179.903,219.541 180,221.5C 178.624,220.295 177.458,218.962 176.5,217.5C 177.167,217.5 177.5,217.167 177.5,216.5 Z"/></g>
<g><path style="opacity:1" fill="#ffe8d9" d="M 188.5,224.5 C 190.484,224.383 192.15,225.05 193.5,226.5C 195.834,225.159 197.501,225.826 198.5,228.5C 194.082,229.865 190.082,229.031 186.5,226C 187.416,225.722 188.082,225.222 188.5,224.5 Z"/></g>
</svg>
